<svg width="386" height="176" viewBox="0 0 386 176" fill="none" xmlns="http://www.w3.org/2000/svg">
<path d="M85.193 3C38.2488 3 0.193047 41.0558 0.193047 88C0.193047 134.944 38.2488 173 85.193 173V169C40.458 169 4.19305 132.735 4.19305 88C4.19305 43.2649 40.458 7 85.193 7V3Z" fill="url(#paint0_linear_4_32)"/>
<path d="M59.6627 127.361C47.7455 102.631 45.8363 128.686 35.859 131.86C27.8772 134.399 24.19 140.37 24.6814 145.497C26.8005 155.347 51.4592 164.368 63.5237 167.647C68.0479 168.876 53.8485 158.648 57.5874 159.345C68.056 161.299 73.693 158.648 73.693 156C73.693 150.5 57.4983 143.091 67.616 141.382C77.7337 139.674 88.4643 129.035 76.0934 130.221C66.1966 131.17 61.1284 130.402 59.6627 127.361Z" fill="url(#paint1_linear_4_32)"/>
<path d="M59.6788 8.37689C70.4818 7.26703 81.3999 19.304 65.7991 29.035C61.4966 31.7186 71.5407 32.1948 84.8701 32.9799C98.1995 33.7649 110.593 66.1065 79.0002 58.3116C65.8036 55.0556 60.9152 52.2916 59.3308 50.939C59.3791 51.0962 59.4196 51.2753 59.447 51.4774C60.3152 57.8661 61.0689 69.7382 56.5614 69.7777C50.9271 69.827 57.6701 74.6413 49.1957 80.8072C46.0178 83.1194 41.1071 89.2845 46.8872 95.4474C54.1124 103.151 43.8574 114.663 35.8615 105.9C31.8635 101.518 33.6815 89.9891 22.4705 89.7218C16.865 89.5881 9.20623 81.0659 12.4016 70.3166C10.6197 69.7231 3.48321 67.4044 3.97291 64.2988C5.12714 56.9786 30.9299 12.2836 59.6788 8.37689Z" fill="url(#paint2_linear_4_32)"/>
<path d="M90.193 5.5C90.193 8.53757 87.7306 11 84.693 11C81.6555 11 79.193 8.53757 79.193 5.5C79.193 2.46243 81.6555 0 84.693 0C87.7306 0 90.193 2.46243 90.193 5.5Z" fill="url(#paint3_linear_4_32)"/>
<path d="M90.193 170.5C90.193 173.538 87.7306 176 84.693 176C81.6555 176 79.193 173.538 79.193 170.5C79.193 167.462 81.6555 165 84.693 165C87.7306 165 90.193 167.462 90.193 170.5Z" fill="url(#paint4_linear_4_32)"/>
<path d="M79.193 15V25" stroke="url(#paint5_linear_4_32)" stroke-width="4" stroke-linecap="round"/>
<path d="M85.193 15V28" stroke="url(#paint6_linear_4_32)" stroke-width="4" stroke-linecap="round"/>
<path d="M79.193 143V156" stroke="url(#paint7_linear_4_32)" stroke-width="4" stroke-linecap="round"/>
<path d="M91.193 140V153" stroke="url(#paint8_linear_4_32)" stroke-width="4" stroke-linecap="round"/>
<path d="M85.193 150V159" stroke="url(#paint9_linear_4_32)" stroke-width="4" stroke-linecap="round"/>
<path d="M91.193 15V31" stroke="url(#paint10_linear_4_32)" stroke-width="4" stroke-linecap="round"/>
<path d="M76.193 64.5H111.193V21.5" stroke="url(#paint11_linear_4_32)" stroke-width="4" stroke-linecap="round"/>
<circle cx="110.693" cy="15.5" r="6.5" fill="url(#paint12_linear_4_32)"/>
<circle cx="141.193" cy="58.5" r="6.5" fill="url(#paint13_linear_4_32)"/>
<path d="M62.193 82H141.693V65.5" stroke="url(#paint14_linear_4_32)" stroke-width="4" stroke-linecap="round"/>
<circle cx="145.693" cy="100.5" r="6.5" fill="url(#paint15_linear_4_32)"/>
<path d="M62.193 100H139.193" stroke="url(#paint16_linear_4_32)" stroke-width="4" stroke-linecap="round"/>
<circle cx="133.693" cy="133.5" r="6.5" fill="url(#paint17_linear_4_32)"/>
<path d="M70.193 118H106.193V133.5H127.193" stroke="url(#paint18_linear_4_32)" stroke-width="4" stroke-linecap="round"/>
<path d="M193.94 96.93C199.353 96.93 202.06 94.9233 202.06 90.91C202.06 89.2767 201.64 87.9933 200.8 87.06C200.007 86.1267 198.513 85.31 196.32 84.61L190.58 82.72C183.72 80.48 180.29 75.9767 180.29 69.21C180.29 65.29 181.503 62.07 183.93 59.55C186.403 56.9833 190.253 55.7 195.48 55.7C197.673 55.7 199.843 55.9567 201.99 56.47C204.137 56.9367 206.423 57.7067 208.85 58.78L206.26 65.99C204.02 65.1033 202.107 64.4733 200.52 64.1C198.98 63.68 197.393 63.47 195.76 63.47C193.613 63.47 191.91 63.8667 190.65 64.66C189.437 65.4067 188.83 66.7833 188.83 68.79C188.83 70.2833 189.25 71.52 190.09 72.5C190.977 73.4333 192.423 74.2267 194.43 74.88L200.17 76.77C203.623 77.9367 206.213 79.64 207.94 81.88C209.713 84.0733 210.6 86.99 210.6 90.63C210.6 94.83 209.27 98.2367 206.61 100.85C203.95 103.417 199.773 104.7 194.08 104.7C191.84 104.7 189.507 104.443 187.08 103.93C184.7 103.37 182.087 102.437 179.24 101.13L181.83 93.92C184.443 95.04 186.66 95.8333 188.48 96.3C190.347 96.72 192.167 96.93 193.94 96.93ZM227.02 61.79H218.55V53.46H227.02V61.79ZM226.81 104H218.76V68.51H226.81V104ZM255.261 75.3C254.094 75.3 252.764 75.58 251.271 76.14C249.778 76.7 248.004 77.7967 245.951 79.43V104H237.901V68.51H245.531V73.27C247.724 71.3567 249.801 69.98 251.761 69.14C253.721 68.2533 255.704 67.81 257.711 67.81C261.118 67.81 263.708 68.9067 265.481 71.1C267.254 73.2467 268.141 76.28 268.141 80.2V104H260.091V81.18C260.091 77.26 258.481 75.3 255.261 75.3ZM308.25 107.57C308.25 111.35 306.757 114.29 303.77 116.39C300.83 118.537 296.723 119.61 291.45 119.61C288.977 119.61 286.363 119.33 283.61 118.77C280.857 118.21 278.313 117.277 275.98 115.97L278.29 109.6C280.53 110.72 282.747 111.513 284.94 111.98C287.133 112.493 289.28 112.75 291.38 112.75C294.32 112.75 296.56 112.353 298.1 111.56C299.64 110.767 300.41 109.717 300.41 108.41C300.41 106.403 299.22 105.4 296.84 105.4H288.44C286.153 105.4 284.31 105.027 282.91 104.28C281.51 103.533 280.483 102.577 279.83 101.41C279.177 100.197 278.85 98.9367 278.85 97.63C278.85 96.2767 279.13 95.0167 279.69 93.85C280.297 92.6367 281.113 91.5167 282.14 90.49C280.46 89.4633 279.107 88.0867 278.08 86.36C277.1 84.6333 276.61 82.5567 276.61 80.13C276.61 77.3767 277.193 75.09 278.36 73.27C279.527 71.45 281.113 70.0967 283.12 69.21C285.173 68.2767 287.437 67.81 289.91 67.81H291.1C292.033 67.81 292.943 67.88 293.83 68.02C294.717 68.1133 295.557 68.2767 296.35 68.51H309.02V75.37L302.02 74.25C302.72 74.9967 303.257 75.93 303.63 77.05C304.05 78.1233 304.26 79.4533 304.26 81.04C304.26 83.42 303.653 85.4733 302.44 87.2C301.273 88.88 299.687 90.1867 297.68 91.12C295.72 92.0067 293.527 92.45 291.1 92.45H289.91C288.977 92.45 288.09 92.38 287.25 92.24C286.737 92.8 286.363 93.3833 286.13 93.99C285.897 94.55 285.78 95.0867 285.78 95.6C285.78 97.2333 286.83 98.05 288.93 98.05H297.47C300.69 98.05 303.28 98.89 305.24 100.57C307.247 102.203 308.25 104.537 308.25 107.57ZM291.1 85.87C292.547 85.87 293.807 85.38 294.88 84.4C296 83.42 296.56 81.9967 296.56 80.13C296.56 78.2633 296 76.84 294.88 75.86C293.807 74.88 292.547 74.39 291.1 74.39H289.91C288.417 74.39 287.11 74.88 285.99 75.86C284.917 76.84 284.38 78.2633 284.38 80.13C284.38 81.9967 284.917 83.42 285.99 84.4C287.11 85.38 288.417 85.87 289.91 85.87H291.1ZM342.847 104.35C340.467 104.35 338.554 103.86 337.107 102.88C335.707 101.9 334.681 100.687 334.027 99.24C332.021 101.107 330.084 102.483 328.217 103.37C326.351 104.257 324.344 104.7 322.197 104.7C319.071 104.7 316.761 103.697 315.267 101.69C313.821 99.6833 313.097 97.14 313.097 94.06C313.097 92.0067 313.471 90.21 314.217 88.67C315.011 87.0833 316.294 85.8467 318.067 84.96C319.841 84.0733 322.267 83.63 325.347 83.63C326.561 83.63 327.821 83.7233 329.127 83.91C330.434 84.05 331.741 84.2367 333.047 84.47V80.34C333.047 78.38 332.511 77.05 331.437 76.35C330.364 75.6033 328.917 75.23 327.097 75.23C325.697 75.23 324.157 75.4167 322.477 75.79C320.844 76.1633 319.071 76.7467 317.157 77.54L314.847 70.68C319.561 68.7667 323.831 67.81 327.657 67.81C331.111 67.81 333.771 68.3933 335.637 69.56C337.551 70.7267 338.881 72.2667 339.627 74.18C340.374 76.0933 340.747 78.1467 340.747 80.34V93.99C340.747 94.69 340.934 95.3667 341.307 96.02C341.727 96.6267 342.521 96.93 343.687 96.93H344.457V104.35H342.847ZM320.867 93.92C320.867 95.18 321.147 96.1833 321.707 96.93C322.267 97.63 323.084 97.98 324.157 97.98C325.231 97.98 326.444 97.7 327.797 97.14C329.151 96.58 330.901 95.2733 333.047 93.22V90.21C330.621 89.79 328.241 89.58 325.907 89.58C324.087 89.58 322.781 89.9533 321.987 90.7C321.241 91.4467 320.867 92.52 320.867 93.92ZM366.636 104.7C365.469 104.7 364.279 104.583 363.066 104.35C361.899 104.117 360.709 103.79 359.496 103.37V118.91H351.446V68.51H359.076V73.34C361.269 71.1467 363.136 69.6767 364.676 68.93C366.216 68.1833 367.826 67.81 369.506 67.81C373.379 67.81 376.366 69.2567 378.466 72.15C380.566 75.0433 381.616 79.1033 381.616 84.33V88.11C381.616 93.1967 380.333 97.2333 377.766 100.22C375.199 103.207 371.489 104.7 366.636 104.7ZM367.336 75.3C366.263 75.3 365.119 75.6267 363.906 76.28C362.739 76.8867 361.269 78.0767 359.496 79.85V96.09C361.783 97.0233 363.883 97.49 365.796 97.49C368.503 97.49 370.439 96.65 371.606 94.97C372.773 93.29 373.356 91.0033 373.356 88.11V84.33C373.356 81.2033 372.819 78.9167 371.746 77.47C370.719 76.0233 369.249 75.3 367.336 75.3Z" fill="url(#paint19_linear_4_32)"/>
<path d="M186.92 135.912C187.592 135.912 188.109 135.768 188.472 135.48C188.835 135.181 189.016 134.749 189.016 134.184C189.016 133.715 188.888 133.32 188.632 133C188.387 132.68 187.981 132.435 187.416 132.264L186.12 131.88C185.309 131.635 184.712 131.267 184.328 130.776C183.944 130.275 183.752 129.661 183.752 128.936C183.752 128.381 183.859 127.88 184.072 127.432C184.296 126.984 184.648 126.627 185.128 126.36C185.619 126.093 186.259 125.96 187.048 125.96C187.528 125.96 188.024 126.019 188.536 126.136C189.048 126.243 189.565 126.419 190.088 126.664L189.64 127.864C189.128 127.64 188.664 127.48 188.248 127.384C187.843 127.277 187.453 127.224 187.08 127.224C186.472 127.224 185.997 127.352 185.656 127.608C185.325 127.853 185.16 128.264 185.16 128.84C185.16 129.256 185.272 129.608 185.496 129.896C185.72 130.173 186.12 130.403 186.696 130.584L187.992 130.968C189.613 131.448 190.424 132.483 190.424 134.072C190.424 134.989 190.147 135.736 189.592 136.312C189.037 136.877 188.147 137.16 186.92 137.16C186.419 137.16 185.885 137.101 185.32 136.984C184.765 136.856 184.189 136.659 183.592 136.392L184.024 135.208C184.589 135.464 185.096 135.645 185.544 135.752C186.003 135.859 186.461 135.912 186.92 135.912ZM203.574 132.552V133.512C203.574 134.643 203.28 135.533 202.694 136.184C202.118 136.835 201.291 137.16 200.214 137.16C199.147 137.16 198.32 136.835 197.734 136.184C197.147 135.533 196.854 134.643 196.854 133.512V132.552C196.854 131.443 197.142 130.563 197.718 129.912C198.304 129.251 199.136 128.92 200.214 128.92C201.291 128.92 202.118 129.251 202.694 129.912C203.28 130.563 203.574 131.443 203.574 132.552ZM202.214 132.552C202.214 131.795 202.043 131.203 201.702 130.776C201.36 130.339 200.864 130.12 200.214 130.12C199.574 130.12 199.078 130.339 198.726 130.776C198.384 131.203 198.214 131.795 198.214 132.552V133.512C198.214 134.301 198.384 134.909 198.726 135.336C199.078 135.763 199.574 135.976 200.214 135.976C200.864 135.976 201.36 135.763 201.702 135.336C202.043 134.909 202.214 134.301 202.214 133.512V132.552ZM216.006 134.616V130.232H212.326V137H211.014V130.232H209.638V129.08H211.014V127.928C211.014 127.405 211.11 126.925 211.302 126.488C211.494 126.04 211.814 125.683 212.262 125.416C212.71 125.139 213.313 125 214.07 125C214.539 125 215.051 125.059 215.606 125.176C216.161 125.293 216.731 125.485 217.318 125.752V129.08H219.91V130.232H217.318V134.568C217.318 135.101 217.403 135.469 217.574 135.672C217.755 135.864 218.033 135.96 218.406 135.96C218.598 135.96 218.801 135.933 219.014 135.88C219.238 135.827 219.489 135.731 219.766 135.592L220.15 136.68C219.531 137 218.875 137.16 218.182 137.16C217.627 137.16 217.19 137.048 216.87 136.824C216.55 136.6 216.326 136.296 216.198 135.912C216.07 135.517 216.006 135.085 216.006 134.616ZM212.326 127.912V129.08H216.006V126.504C215.291 126.301 214.657 126.2 214.102 126.2C213.515 126.2 213.073 126.333 212.774 126.6C212.475 126.867 212.326 127.304 212.326 127.912ZM236.235 129.08L234.203 137H232.683L231.019 130.504L229.307 137H227.787L225.771 129.08H227.115L227.915 132.392L228.635 135.672L230.347 129.08H231.739L233.451 135.704L234.155 132.408L234.939 129.08H236.235ZM248.728 137.08C248.237 137.08 247.843 136.968 247.544 136.744C247.256 136.52 247.053 136.243 246.936 135.912C246.413 136.371 245.939 136.696 245.512 136.888C245.085 137.069 244.659 137.16 244.232 137.16C243.539 137.16 243.027 136.936 242.696 136.488C242.365 136.04 242.2 135.491 242.2 134.84C242.2 134.403 242.28 134.013 242.44 133.672C242.6 133.331 242.872 133.064 243.256 132.872C243.64 132.669 244.157 132.568 244.808 132.568C245.096 132.568 245.411 132.589 245.752 132.632C246.093 132.664 246.44 132.707 246.792 132.76V131.688C246.792 131.091 246.659 130.685 246.392 130.472C246.136 130.248 245.757 130.136 245.256 130.136C244.573 130.136 243.811 130.323 242.968 130.696L242.552 129.608C243.043 129.384 243.512 129.213 243.96 129.096C244.408 128.979 244.861 128.92 245.32 128.92C246.067 128.92 246.637 129.043 247.032 129.288C247.427 129.533 247.699 129.859 247.848 130.264C247.997 130.669 248.072 131.112 248.072 131.592V135.016C248.072 135.261 248.12 135.469 248.216 135.64C248.312 135.8 248.504 135.88 248.792 135.88H248.968V137.08H248.728ZM243.496 134.824C243.496 135.187 243.581 135.48 243.752 135.704C243.923 135.928 244.168 136.04 244.488 136.04C244.765 136.04 245.085 135.96 245.448 135.8C245.811 135.629 246.259 135.293 246.792 134.792V133.784C246.067 133.667 245.427 133.608 244.872 133.608C244.381 133.608 244.029 133.709 243.816 133.912C243.603 134.115 243.496 134.419 243.496 134.824ZM259.787 130.232C259.307 130.232 258.837 130.317 258.379 130.488C257.931 130.659 257.451 130.984 256.939 131.464V137H255.627V129.08H256.875V130.36C257.419 129.827 257.915 129.453 258.363 129.24C258.821 129.027 259.296 128.92 259.787 128.92V130.232ZM272.046 136.536C271.566 136.771 271.086 136.931 270.606 137.016C270.126 137.112 269.683 137.16 269.278 137.16C268.136 137.16 267.283 136.835 266.718 136.184C266.163 135.533 265.886 134.643 265.886 133.512V132.552C265.886 131.453 266.163 130.573 266.718 129.912C267.283 129.251 268.078 128.92 269.102 128.92C269.646 128.92 270.142 129.032 270.59 129.256C271.048 129.469 271.411 129.8 271.678 130.248C271.955 130.685 272.094 131.251 272.094 131.944C272.094 132.392 272.03 132.904 271.902 133.48H267.182V133.512C267.182 134.323 267.347 134.936 267.678 135.352C268.019 135.768 268.563 135.976 269.31 135.976C269.651 135.976 270.024 135.933 270.43 135.848C270.846 135.763 271.251 135.629 271.646 135.448L272.046 136.536ZM269.102 130.072C268.483 130.072 268.014 130.275 267.694 130.68C267.384 131.075 267.214 131.635 267.182 132.36H270.766C270.798 132.168 270.814 131.987 270.814 131.816C270.814 131.219 270.643 130.781 270.302 130.504C269.971 130.216 269.571 130.072 269.102 130.072ZM293.817 135.704V137H287.737V126.12H293.657V127.432H289.129V130.84H293.177V132.152H289.129V135.704H293.817ZM304.557 130.152C304.258 130.152 303.906 130.227 303.501 130.376C303.106 130.525 302.626 130.829 302.061 131.288V137H300.749V129.08H301.997V130.184C302.562 129.704 303.074 129.373 303.533 129.192C304.002 129.011 304.45 128.92 304.877 128.92C305.613 128.92 306.173 129.155 306.557 129.624C306.951 130.083 307.149 130.739 307.149 131.592V137H305.837V131.784C305.837 130.696 305.41 130.152 304.557 130.152ZM321.025 137.992C321.025 138.771 320.705 139.395 320.065 139.864C319.436 140.333 318.567 140.568 317.457 140.568C316.903 140.568 316.321 140.493 315.713 140.344C315.116 140.195 314.551 139.955 314.017 139.624L314.465 138.6C314.999 138.899 315.511 139.107 316.001 139.224C316.503 139.352 316.988 139.416 317.457 139.416C318.183 139.416 318.743 139.299 319.137 139.064C319.532 138.829 319.729 138.515 319.729 138.12C319.729 137.832 319.633 137.608 319.441 137.448C319.249 137.299 318.94 137.224 318.513 137.224H316.673C315.98 137.224 315.479 137.059 315.169 136.728C314.86 136.397 314.705 136.035 314.705 135.64C314.705 135.363 314.769 135.091 314.897 134.824C315.025 134.547 315.207 134.275 315.441 134.008C315.068 133.784 314.769 133.48 314.545 133.096C314.321 132.701 314.209 132.227 314.209 131.672C314.209 131.064 314.337 130.557 314.593 130.152C314.86 129.747 315.212 129.443 315.649 129.24C316.087 129.027 316.577 128.92 317.121 128.92H317.393C317.767 128.92 318.108 128.973 318.417 129.08H321.265V130.248L319.537 130.008C319.761 130.2 319.943 130.44 320.081 130.728C320.22 131.005 320.289 131.347 320.289 131.752C320.289 132.328 320.156 132.813 319.889 133.208C319.633 133.603 319.287 133.907 318.849 134.12C318.412 134.323 317.927 134.424 317.393 134.424H317.121C316.983 134.424 316.849 134.419 316.721 134.408C316.593 134.387 316.465 134.365 316.337 134.344C316.028 134.685 315.873 135.021 315.873 135.352C315.873 135.779 316.172 135.992 316.769 135.992H318.561C319.329 135.992 319.932 136.163 320.369 136.504C320.807 136.845 321.025 137.341 321.025 137.992ZM317.393 133.288C317.809 133.288 318.177 133.155 318.497 132.888C318.817 132.621 318.977 132.216 318.977 131.672C318.977 131.139 318.817 130.739 318.497 130.472C318.177 130.195 317.809 130.056 317.393 130.056H317.121C316.695 130.056 316.321 130.195 316.001 130.472C315.681 130.739 315.521 131.139 315.521 131.672C315.521 132.216 315.681 132.621 316.001 132.888C316.321 133.155 316.695 133.288 317.121 133.288H317.393ZM329.194 127.144H327.722V125.672H329.194V127.144ZM329.114 137H327.802V129.08H329.114V137ZM340.55 130.152C340.252 130.152 339.9 130.227 339.494 130.376C339.1 130.525 338.62 130.829 338.054 131.288V137H336.742V129.08H337.99V130.184C338.556 129.704 339.068 129.373 339.526 129.192C339.996 129.011 340.444 128.92 340.87 128.92C341.606 128.92 342.166 129.155 342.55 129.624C342.945 130.083 343.142 130.739 343.142 131.592V137H341.83V131.784C341.83 130.696 341.404 130.152 340.55 130.152ZM356.427 136.536C355.947 136.771 355.467 136.931 354.987 137.016C354.507 137.112 354.064 137.16 353.659 137.16C352.518 137.16 351.664 136.835 351.099 136.184C350.544 135.533 350.267 134.643 350.267 133.512V132.552C350.267 131.453 350.544 130.573 351.099 129.912C351.664 129.251 352.459 128.92 353.483 128.92C354.027 128.92 354.523 129.032 354.971 129.256C355.43 129.469 355.792 129.8 356.059 130.248C356.336 130.685 356.475 131.251 356.475 131.944C356.475 132.392 356.411 132.904 356.283 133.48H351.563V133.512C351.563 134.323 351.728 134.936 352.059 135.352C352.4 135.768 352.944 135.976 353.691 135.976C354.032 135.976 354.406 135.933 354.811 135.848C355.227 135.763 355.632 135.629 356.027 135.448L356.427 136.536ZM353.483 130.072C352.864 130.072 352.395 130.275 352.075 130.68C351.766 131.075 351.595 131.635 351.563 132.36H355.147C355.179 132.168 355.195 131.987 355.195 131.816C355.195 131.219 355.024 130.781 354.683 130.504C354.352 130.216 353.952 130.072 353.483 130.072ZM369.289 136.536C368.809 136.771 368.329 136.931 367.849 137.016C367.369 137.112 366.927 137.16 366.521 137.16C365.38 137.16 364.527 136.835 363.961 136.184C363.407 135.533 363.129 134.643 363.129 133.512V132.552C363.129 131.453 363.407 130.573 363.961 129.912C364.527 129.251 365.321 128.92 366.345 128.92C366.889 128.92 367.385 129.032 367.833 129.256C368.292 129.469 368.655 129.8 368.921 130.248C369.199 130.685 369.337 131.251 369.337 131.944C369.337 132.392 369.273 132.904 369.145 133.48H364.425V133.512C364.425 134.323 364.591 134.936 364.921 135.352C365.263 135.768 365.807 135.976 366.553 135.976C366.895 135.976 367.268 135.933 367.673 135.848C368.089 135.763 368.495 135.629 368.889 135.448L369.289 136.536ZM366.345 130.072C365.727 130.072 365.257 130.275 364.937 130.68C364.628 131.075 364.457 131.635 364.425 132.36H368.009C368.041 132.168 368.057 131.987 368.057 131.816C368.057 131.219 367.887 130.781 367.545 130.504C367.215 130.216 366.815 130.072 366.345 130.072ZM380.568 130.232C380.088 130.232 379.619 130.317 379.16 130.488C378.712 130.659 378.232 130.984 377.72 131.464V137H376.408V129.08H377.656V130.36C378.2 129.827 378.696 129.453 379.144 129.24C379.603 129.027 380.077 128.92 380.568 128.92V130.232Z" fill="url(#paint20_linear_4_32)"/>
<defs>
<linearGradient id="paint0_linear_4_32" x1="49.5304" y1="0" x2="49.5304" y2="176" gradientUnits="userSpaceOnUse">
<stop stop-color="#497FBC"/>
<stop offset="1" stop-color="#76D1FA"/>
</linearGradient>
<linearGradient id="paint1_linear_4_32" x1="49.5304" y1="0" x2="49.5304" y2="176" gradientUnits="userSpaceOnUse">
<stop stop-color="#497FBC"/>
<stop offset="1" stop-color="#76D1FA"/>
</linearGradient>
<linearGradient id="paint2_linear_4_32" x1="49.5304" y1="0" x2="49.5304" y2="176" gradientUnits="userSpaceOnUse">
<stop stop-color="#497FBC"/>
<stop offset="1" stop-color="#76D1FA"/>
</linearGradient>
<linearGradient id="paint3_linear_4_32" x1="49.5304" y1="0" x2="49.5304" y2="176" gradientUnits="userSpaceOnUse">
<stop stop-color="#497FBC"/>
<stop offset="1" stop-color="#76D1FA"/>
</linearGradient>
<linearGradient id="paint4_linear_4_32" x1="49.5304" y1="0" x2="49.5304" y2="176" gradientUnits="userSpaceOnUse">
<stop stop-color="#497FBC"/>
<stop offset="1" stop-color="#76D1FA"/>
</linearGradient>
<linearGradient id="paint5_linear_4_32" x1="79.693" y1="15" x2="79.693" y2="25" gradientUnits="userSpaceOnUse">
<stop stop-color="#497FBC"/>
<stop offset="1" stop-color="#76D1FA"/>
</linearGradient>
<linearGradient id="paint6_linear_4_32" x1="85.693" y1="15" x2="85.693" y2="28" gradientUnits="userSpaceOnUse">
<stop stop-color="#497FBC"/>
<stop offset="1" stop-color="#76D1FA"/>
</linearGradient>
<linearGradient id="paint7_linear_4_32" x1="79.693" y1="143" x2="79.693" y2="156" gradientUnits="userSpaceOnUse">
<stop stop-color="#497FBC"/>
<stop offset="1" stop-color="#76D1FA"/>
</linearGradient>
<linearGradient id="paint8_linear_4_32" x1="91.693" y1="140" x2="91.693" y2="153" gradientUnits="userSpaceOnUse">
<stop stop-color="#497FBC"/>
<stop offset="1" stop-color="#76D1FA"/>
</linearGradient>
<linearGradient id="paint9_linear_4_32" x1="85.693" y1="150" x2="85.693" y2="159" gradientUnits="userSpaceOnUse">
<stop stop-color="#497FBC"/>
<stop offset="1" stop-color="#76D1FA"/>
</linearGradient>
<linearGradient id="paint10_linear_4_32" x1="91.693" y1="15" x2="91.693" y2="31" gradientUnits="userSpaceOnUse">
<stop stop-color="#497FBC"/>
<stop offset="1" stop-color="#76D1FA"/>
</linearGradient>
<linearGradient id="paint11_linear_4_32" x1="93.693" y1="21.5" x2="93.693" y2="64.5" gradientUnits="userSpaceOnUse">
<stop stop-color="#497FBC"/>
<stop offset="1" stop-color="#76D1FA"/>
</linearGradient>
<linearGradient id="paint12_linear_4_32" x1="110.693" y1="9" x2="110.693" y2="22" gradientUnits="userSpaceOnUse">
<stop stop-color="#497FBC"/>
<stop offset="1" stop-color="#76D1FA"/>
</linearGradient>
<linearGradient id="paint13_linear_4_32" x1="141.193" y1="52" x2="141.193" y2="65" gradientUnits="userSpaceOnUse">
<stop stop-color="#497FBC"/>
<stop offset="1" stop-color="#76D1FA"/>
</linearGradient>
<linearGradient id="paint14_linear_4_32" x1="101.943" y1="65.5" x2="101.943" y2="82" gradientUnits="userSpaceOnUse">
<stop stop-color="#497FBC"/>
<stop offset="1" stop-color="#76D1FA"/>
</linearGradient>
<linearGradient id="paint15_linear_4_32" x1="145.693" y1="94" x2="145.693" y2="107" gradientUnits="userSpaceOnUse">
<stop stop-color="#497FBC"/>
<stop offset="1" stop-color="#76D1FA"/>
</linearGradient>
<linearGradient id="paint16_linear_4_32" x1="100.693" y1="100" x2="100.693" y2="101" gradientUnits="userSpaceOnUse">
<stop stop-color="#497FBC"/>
<stop offset="1" stop-color="#76D1FA"/>
</linearGradient>
<linearGradient id="paint17_linear_4_32" x1="133.693" y1="127" x2="133.693" y2="140" gradientUnits="userSpaceOnUse">
<stop stop-color="#497FBC"/>
<stop offset="1" stop-color="#76D1FA"/>
</linearGradient>
<linearGradient id="paint18_linear_4_32" x1="98.693" y1="118" x2="98.693" y2="133.5" gradientUnits="userSpaceOnUse">
<stop stop-color="#497FBC"/>
<stop offset="1" stop-color="#76D1FA"/>
</linearGradient>
<linearGradient id="paint19_linear_4_32" x1="281.5" y1="36" x2="281.5" y2="120" gradientUnits="userSpaceOnUse">
<stop stop-color="#497FBC"/>
<stop offset="1" stop-color="#76D1FA"/>
</linearGradient>
<linearGradient id="paint20_linear_4_32" x1="282" y1="121" x2="282" y2="140" gradientUnits="userSpaceOnUse">
<stop stop-color="#497FBC"/>
<stop offset="1" stop-color="#76D1FA"/>
</linearGradient>
</defs>
</svg>
